<svg preserveAspectRatio="none" width="100%" height="100%" overflow="visible" style="display: block;" viewBox="0 0 16 16" fill="none" xmlns="http://www.w3.org/2000/svg">
<g id="SVG">
<path id="Vector" d="M11.1867 7C11.0667 6.93333 10.9333 6.88 10.7867 6.88H10.2667V8.82667H10.7867C10.9333 8.84 11.0667 8.81333 11.1867 8.73333C11.3067 8.66667 11.4 8.54667 11.4667 8.4C11.5333 8.25333 11.56 8.06667 11.56 7.86667C11.56 7.66667 11.5333 7.48 11.4667 7.33333C11.4 7.18667 11.3067 7.08 11.1867 7Z" fill="var(--fill-0, #303030)" stroke="var(--stroke-0, black)" stroke-width="0.133333"/>
<path id="Vector_2" d="M14.8133 5.84C14.1333 5.33333 11.8267 3.86667 8 3.86667C4.29333 3.86667 2.02667 5.24 1.26667 5.78667L1.2 5.84C0.853333 6.09333 0.8 6.56 1.01333 6.88L4.30667 12.08C4.52 12.4133 4.94667 12.5333 5.30667 12.3867C5.56 12.28 6.02667 12.0933 6.53333 11.9333C7.05333 11.7733 7.58667 11.6533 8.01333 11.6533C8.44 11.6533 8.97333 11.7733 9.49333 11.9333C10.0133 12.0933 10.4667 12.28 10.72 12.3867C11.08 12.5467 11.5067 12.4133 11.72 12.08L15.0133 6.88C15.2267 6.56 15.1733 6.09333 14.8267 5.84H14.8133ZM6.4 9.46667H5.72V8.17333H4.45333V9.46667H3.77333V6.28H4.45333V7.54667H5.72V6.28H6.4V9.46667ZM9.32 8.12C9.32 8.41333 9.26667 8.66667 9.16 8.86667C9.06667 9.08 8.89333 9.22667 8.69333 9.34667C8.49333 9.46667 8.26667 9.50667 8 9.50667C7.73333 9.50667 7.50667 9.45333 7.30667 9.34667H7.32C7.12 9.22667 6.97333 9.08 6.85333 8.86667C6.73333 8.65333 6.69333 8.4 6.69333 8.12V6.30667H7.37333V8.12C7.37333 8.37333 7.42667 8.57333 7.53333 8.70667C7.65333 8.84 7.8 8.90667 8 8.90667C8.2 8.90667 8.34667 8.84 8.46667 8.70667C8.58667 8.57333 8.65333 8.37333 8.65333 8.12V6.30667H9.33333V8.12H9.32ZM12.08 8.72C11.96 8.94667 11.8 9.13333 11.5867 9.26667C11.3733 9.4 11.1067 9.45333 10.8267 9.45333H9.6V6.29333H10.8267C11.12 6.29333 11.3733 6.36 11.5867 6.48C11.8 6.6 11.9733 6.8 12.08 7.02667C12.1867 7.25333 12.2667 7.54667 12.2667 7.88C12.2667 8.21333 12.2 8.49333 12.08 8.73333V8.72Z" fill="var(--fill-0, #303030)" stroke="var(--stroke-0, black)" stroke-width="0.133333"/>
</g>
</svg>
