<svg preserveAspectRatio="none" width="100%" height="100%" overflow="visible" style="display: block;" viewBox="0 0 16 16" fill="none" xmlns="http://www.w3.org/2000/svg">
<g id="SVG">
<path id="Vector" fill-rule="evenodd" clip-rule="evenodd" d="M1.6 7.33333C1.6 4.53507 3.8684 2.26667 6.66667 2.26667H9.33333C12.1316 2.26667 14.4 4.53507 14.4 7.33333V8.66667C14.4 11.4649 12.1316 13.7333 9.33333 13.7333H6.66667C3.8684 13.7333 1.6 11.4649 1.6 8.66667V7.33333ZM6.66667 3.6H9.33333C10.9851 3.6 12.3863 4.67267 12.8784 6.15933L12.8667 6.13333C12.9664 6.4656 12.7176 6.8 12.3707 6.8H11.444C11.2653 6.8 11.1133 6.6696 11.0861 6.49293L10.9711 5.74493C10.942 5.55608 10.8463 5.38388 10.7013 5.25947C10.5562 5.13506 10.3715 5.06667 10.1804 5.06667H5.81973C5.62864 5.06668 5.44386 5.13509 5.29883 5.25952C5.15381 5.38396 5.05811 5.55619 5.02907 5.74507L4.914 6.49293C4.90084 6.57844 4.85751 6.65641 4.79184 6.71274C4.72618 6.76906 4.64251 6.80002 4.556 6.8H3.62933C3.28253 6.8 3.03373 6.4656 3.13333 6.13333L3.12133 6.16C3.61333 4.67293 5.01467 3.6 6.66667 3.6ZM3.39773 10.4713C4.034 11.6213 5.25933 12.4 6.66667 12.4H9.33333C10.7399 12.4 11.9647 11.6223 12.6012 10.4733C12.6115 10.2975 12.4728 10.1333 12.2797 10.1333C12.2712 10.1334 12.2627 10.1351 12.2548 10.1384L10.2297 10.9911C9.90217 11.129 9.55034 11.2 9.19493 11.2H6.8052C6.44979 11.2 6.09796 11.129 5.7704 10.9911L3.74827 10.1396C3.73843 10.1355 3.72787 10.1333 3.7172 10.1333C3.5252 10.1333 3.38747 10.2965 3.39773 10.4713Z" fill="var(--fill-0, #303030)" stroke="var(--stroke-0, black)" stroke-width="0.133333"/>
</g>
</svg>
