<svg preserveAspectRatio="none" width="100%" height="100%" overflow="visible" style="display: block;" viewBox="0 0 16 16" fill="none" xmlns="http://www.w3.org/2000/svg">
<g id="SVG">
<path id="Vector" fill-rule="evenodd" clip-rule="evenodd" d="M1.223 8.03V13.714H2.699C2.78917 13.7152 2.87869 13.6986 2.96244 13.6651C3.04619 13.6317 3.12253 13.5821 3.18708 13.5191C3.25163 13.4561 3.30313 13.381 3.33864 13.2982C3.37414 13.2153 3.39296 13.1262 3.394 13.036V12.783C3.394 12.409 3.705 12.105 4.089 12.105H11.906C12.29 12.105 12.601 12.408 12.601 12.783V13.037C12.601 13.41 12.912 13.714 13.296 13.714H14.773V8.029L12.145 8.741L13.571 11.009L13.021 11.339L11.147 8.359L14.617 7.419L13.8 5.919L14.857 5.633L14.685 5.027L13.49 5.349L12.065 2.735C11.9894 2.59779 11.8781 2.48355 11.7429 2.40434C11.6077 2.32514 11.4537 2.2839 11.297 2.285H4.698C4.5415 2.28409 4.38765 2.3254 4.25266 2.4046C4.11767 2.4838 4.00655 2.59794 3.931 2.735L2.503 5.355L1.313 5.034L1.143 5.63L2.197 5.915L1.377 7.419L4.848 8.359L2.974 11.339L2.424 11.009L3.851 8.741L1.223 8.03ZM3.289 6.21L3.155 6.182L2.52 6.595L2.878 7.118L3.288 6.852C4.068 7.004 5.884 7.255 7.998 7.255C10.112 7.255 11.928 7.004 12.708 6.852L13.118 7.118L13.475 6.595L12.84 6.182L12.707 6.211C12.063 6.347 10.197 6.627 7.997 6.627C5.797 6.627 3.933 6.346 3.289 6.21ZM5.042 10.596C5.09427 10.5714 5.15124 10.5585 5.209 10.558H10.787C10.8444 10.5586 10.901 10.5716 10.953 10.596L11.328 10.779L11.616 10.216L11.242 10.034C11.1003 9.96496 10.9447 9.92906 10.787 9.929H5.209C5.051 9.92891 4.89505 9.96482 4.753 10.034L4.379 10.216L4.668 10.779L5.042 10.596Z" fill="var(--fill-0, white)"/>
</g>
</svg>
