<svg preserveAspectRatio="none" width="100%" height="100%" overflow="visible" style="display: block;" viewBox="0 0 14.7979 19.0127" fill="none" xmlns="http://www.w3.org/2000/svg">
<path id="Union" d="M14.7965 3.66315C14.8661 4.93965 12.404 13.9558 11.4089 17.5379C11.1678 18.4055 10.3775 18.9987 9.47701 19.0041C6.95401 19.0193 2.90053 19.0465 2.05423 18.7617C0.742752 18.3202 -0.218999 15.1419 0.0432969 14.1708C0.305592 13.1996 1.52964 12.6699 3.19084 12.6699C4.05075 12.6699 6.10539 13.214 7.99662 13.8736C7.96433 13.6124 8.18233 11.5391 8.68403 10.1467C9.11036 8.96352 10.1842 7.29701 10.1842 7.29701C10.1842 7.29701 11.2824 5.6634 11.4 4.3C11.4801 3.36973 11.027 2.42911 10.876 1.9672C10.7561 0.990196 11.8407 -3.877e-06 12.8 0C13.7937 4.01617e-06 14.7093 2.06447 14.7965 3.66315Z" fill="var(--fill-0, black)"/>
</svg>
