<svg preserveAspectRatio="none" width="100%" height="100%" overflow="visible" style="display: block;" viewBox="0 0 19.772 19.7737" fill="none" xmlns="http://www.w3.org/2000/svg">
<g id="Vector">
<path fill-rule="evenodd" clip-rule="evenodd" d="M13.2606 1.58203C13.0961 2.00803 13.0053 2.47078 13.0053 2.9548C13.0054 5.05991 14.7121 6.76674 16.8172 6.76674C17.302 6.76672 17.7651 6.67483 18.1917 6.50977V16.731C18.1917 18.4112 16.8291 19.7737 15.149 19.7737H3.04185C1.36174 19.7737 0 18.4111 0 16.731V4.62388C3.99825e-05 2.9438 1.36177 1.58207 3.04185 1.58203H13.2606ZM9.09626 6.21261C8.16402 6.21261 7.62534 6.79034 6.86384 7.88002L4.35519 11.5312C3.77754 12.3584 3.59347 12.7391 3.59347 13.1593C3.59349 13.8552 4.15819 14.1444 4.60463 14.1445C5.0905 14.1445 5.45877 13.8293 6.23354 13.1727L6.78432 12.7132C7.53283 12.0828 8.21644 11.6359 9.09626 11.6359C9.97589 11.636 10.6458 12.0829 11.4074 12.7132L11.959 13.1727C12.7466 13.8291 13.1013 14.1445 13.5871 14.1445C14.0335 14.1445 14.5982 13.8815 14.5982 13.1593C14.5982 12.7523 14.401 12.3584 13.8365 11.5312L11.3287 7.88002C10.5672 6.77713 10.0284 6.21277 9.09626 6.21261Z" fill="var(--fill-0, black)"/>
<path fill-rule="evenodd" clip-rule="evenodd" d="M16.8172 0C18.449 9.00079e-05 19.772 1.32306 19.772 2.9548C19.772 4.58647 18.4489 5.90951 16.8172 5.9096C15.1855 5.9096 13.8625 4.58652 13.8624 2.9548C13.8624 1.323 15.1854 0 16.8172 0ZM16.885 1.62891C16.8062 1.91775 16.5834 2.10184 16.1895 2.10184V2.35128H16.767V4.1635H17.1479V1.62891H16.885Z" fill="var(--fill-0, black)"/>
</g>
</svg>
