<svg preserveAspectRatio="none" width="100%" height="100%" overflow="visible" style="display: block;" viewBox="0 0 21.5714 16.4286" fill="none" xmlns="http://www.w3.org/2000/svg">
<g id="Vector">
<path d="M17.1387 10.3662V6.21401H10.7857L4.73529 6.21378V10.366L6.95825 12.3989C7.47432 12.8709 8.14832 13.1326 8.84765 13.1327L10.7857 13.1328H13.0262C13.7256 13.1328 14.3997 12.8711 14.9158 12.3991L17.1387 10.3662Z" fill="var(--fill-0, black)"/>
<path d="M0.553081 6.21401C0.517973 6.46624 0.5 6.72248 0.5 6.98108V8.82923M0.553081 6.21401C0.762235 4.71177 1.57918 3.35113 2.82648 2.476L4.70063 1.16108C5.31423 0.730573 6.04222 0.5 6.78787 0.5H14.7836C15.5292 0.5 16.2572 0.730573 16.8708 1.16108L18.7449 2.476C19.9923 3.35117 20.8092 4.71168 21.0184 6.21401M0.553081 6.21401L4.73529 6.21378M21.0184 6.21401C21.0535 6.46624 21.0714 6.72248 21.0714 6.98108V8.82923M21.0184 6.21401H17.1387M17.1387 6.21401V10.3662M17.1387 6.21401H10.7857L4.73529 6.21378M17.1387 10.3662L21.0714 8.82923M17.1387 10.3662L14.9158 12.3991C14.3997 12.8711 13.7256 13.1328 13.0262 13.1328H10.7857L8.84765 13.1327C8.14832 13.1326 7.47432 12.8709 6.95825 12.3989L4.73529 10.366M21.0714 8.82923V9.44749C21.0714 11.2464 20.2017 12.9305 18.7449 13.9526L16.8708 15.2675C16.2572 15.698 15.5292 15.9286 14.7836 15.9286H6.78787C6.04222 15.9286 5.31423 15.698 4.70063 15.2675L2.82648 13.9526C1.36969 12.9305 0.5 11.2464 0.5 9.44749V8.82923M4.73529 6.21378V10.366M4.73529 10.366L0.5 8.82923" stroke="var(--stroke-0, black)"/>
</g>
</svg>
