<svg preserveAspectRatio="none" width="100%" height="100%" overflow="visible" style="display: block;" viewBox="0 0 16 16" fill="none" xmlns="http://www.w3.org/2000/svg">
<g id="SVG">
<path id="Vector" d="M8 1.06667C11.8292 1.06667 14.9333 4.1708 14.9333 8C14.9333 11.8292 11.8292 14.9333 8 14.9333C4.1708 14.9333 1.06667 11.8292 1.06667 8C1.06667 4.1708 4.1708 1.06667 8 1.06667ZM7.9936 4.6984C7.30853 4.6984 7.02387 5.09053 6.47413 5.84773L6.45227 5.878C5.74613 6.85053 5.04693 7.90467 4.4444 8.87853C4.2464 9.1984 3.98933 9.85893 4.51027 10.1891C4.64627 10.2751 4.7716 10.3111 4.8908 10.3111C5.17853 10.3111 5.4276 10.1007 5.68947 9.8796L5.71347 9.8592L5.83333 9.75813C6.65093 9.06707 7.2844 8.53173 7.9936 8.53173H8.0064C8.7156 8.53173 9.34907 9.06707 10.1667 9.75813L10.2864 9.8592L10.3105 9.8796C10.5724 10.1007 10.8215 10.3111 11.1092 10.3111C11.2283 10.3111 11.3537 10.2751 11.4897 10.1891C12.0107 9.85893 11.7536 9.1984 11.5556 8.8784H11.556C10.9533 7.90467 10.2541 6.8504 9.548 5.878L9.52667 5.8484C8.9768 5.0908 8.692 4.6984 8.00667 4.6984H7.9936Z" fill="var(--fill-0, #303030)" stroke="var(--stroke-0, black)" stroke-width="0.133333"/>
</g>
</svg>
