<svg preserveAspectRatio="none" width="100%" height="100%" overflow="visible" style="display: block;" viewBox="0 0 16 16" fill="none" xmlns="http://www.w3.org/2000/svg">
<g id="SVG" clip-path="url(#clip0_809_144907)">
<path id="Vector" d="M4.087 11.204L2.25 9.366L1.566 10.049C1.4717 10.1401 1.3454 10.1905 1.2143 10.1893C1.0832 10.1882 0.957795 10.1356 0.865091 10.0429C0.772387 9.95021 0.719802 9.8248 0.718663 9.6937C0.717524 9.5626 0.767921 9.4363 0.859 9.342L2.934 7.268C3.0283 7.17692 3.1546 7.12652 3.2857 7.12766C3.4168 7.1288 3.54221 7.18139 3.63491 7.27409C3.72761 7.3668 3.7802 7.4922 3.78134 7.6233C3.78248 7.7544 3.73208 7.8807 3.641 7.975L2.957 8.658L3.267 8.969L5.767 6.471L7.294 7.998L4.087 11.204ZM7.03 12.73L7.34 13.04L8.024 12.357C8.1183 12.2659 8.2446 12.2155 8.3757 12.2167C8.5068 12.2178 8.6322 12.2704 8.72491 12.3631C8.81761 12.4558 8.8702 12.5812 8.87134 12.7123C8.87248 12.8434 8.82208 12.9697 8.731 13.064L6.656 15.14C6.5617 15.2311 6.4354 15.2815 6.3043 15.2803C6.1732 15.2792 6.04779 15.2266 5.95509 15.1339C5.86239 15.0412 5.8098 14.9158 5.80866 14.7847C5.80752 14.6536 5.85792 14.5273 5.949 14.433L6.632 13.749L4.794 11.911L8 8.705L9.527 10.233L7.03 12.73ZM10.049 0.857C10.0956 0.903446 10.1325 0.958621 10.1577 1.01937C10.1829 1.08011 10.1959 1.14523 10.1959 1.211C10.1959 1.27677 10.1829 1.34189 10.1577 1.40263C10.1325 1.46338 10.0956 1.51855 10.049 1.565L9.366 2.248L11.204 4.086L8 7.291L6.472 5.764L8.97 3.266L8.66 2.956L7.976 3.638C7.8817 3.72908 7.7554 3.77948 7.6243 3.77834C7.4932 3.7772 7.36779 3.72461 7.27509 3.63191C7.18239 3.53921 7.1298 3.4138 7.12866 3.2827C7.12752 3.1516 7.17792 3.0253 7.269 2.931L9.343 0.857C9.43676 0.763264 9.56392 0.710607 9.6965 0.710607C9.82908 0.710607 9.95624 0.763264 10.05 0.857M15.142 5.948C15.2357 6.04176 15.2884 6.16892 15.2884 6.3015C15.2884 6.43408 15.2357 6.56124 15.142 6.655L13.067 8.73C12.9727 8.82108 12.8464 8.87148 12.7153 8.87034C12.5842 8.8692 12.4588 8.81661 12.3661 8.72391C12.2734 8.63121 12.2208 8.5058 12.2197 8.3747C12.2185 8.2436 12.2689 8.1173 12.36 8.023L13.043 7.34L12.732 7.03L10.234 9.527L8.707 7.999L11.911 4.794L13.75 6.633L14.433 5.949C14.5268 5.85526 14.6539 5.80261 14.7865 5.80261C14.9191 5.80261 15.0462 5.85526 15.14 5.949" fill="var(--fill-0, black)"/>
</g>
<defs>
<clipPath id="clip0_809_144907">
<rect width="16" height="16" fill="white"/>
</clipPath>
</defs>
</svg>
