<svg preserveAspectRatio="none" width="100%" height="100%" overflow="visible" style="display: block;" viewBox="0 0 16 16" fill="none" xmlns="http://www.w3.org/2000/svg">
<g id="SVG">
<path id="Vector" d="M7.90027 1.99747C8.02833 1.94382 8.17243 1.94305 8.30107 1.99533C8.98813 2.27267 11.2709 3.19453 12.5087 3.70067C12.6055 3.7402 12.6885 3.80755 12.7471 3.89421C12.8058 3.98088 12.8374 4.08297 12.838 4.1876C12.8444 4.99773 12.8589 6.96653 12.8532 7.57427C12.8532 11.9976 9.35453 13.6525 8.38813 14.0235C8.27845 14.0657 8.15698 14.0654 8.04747 14.0228C7.06547 13.6448 3.41867 11.9571 3.41867 7.5744C3.42453 6.9528 3.47493 4.97693 3.49587 4.17627C3.49821 4.07431 3.53003 3.97522 3.58748 3.89097C3.64493 3.80671 3.72555 3.74089 3.8196 3.70147C5.01187 3.19907 7.22587 2.278 7.90027 1.99747Z" fill="var(--fill-0, #303030)" stroke="var(--stroke-0, black)" stroke-width="0.133333"/>
</g>
</svg>
