<svg preserveAspectRatio="none" width="100%" height="100%" overflow="visible" style="display: block;" viewBox="0 0 16 16" fill="none" xmlns="http://www.w3.org/2000/svg">
<g id="SVG">
<g id="Vector">
<path fill-rule="evenodd" clip-rule="evenodd" d="M1.7304 4.604C1.64107 4.46133 1.61 4.29453 1.60053 4.1676C1.59187 4.0508 1.68107 3.95693 1.79773 3.94493C1.8968 3.93467 2.52173 3.94373 2.52173 3.94373C2.52173 3.94373 2.79013 3.20867 3.01107 2.75173C3.1196 2.5268 3.40093 2.53067 3.57693 2.53307C3.59418 2.53333 3.61018 2.53351 3.62493 2.5336H7.57253C7.58764 2.5336 7.6036 2.53342 7.6204 2.53307C7.79067 2.53067 8.03853 2.52707 8.14707 2.75173C8.3684 3.21013 8.67853 3.94493 8.67853 3.94493C8.67853 3.94493 9.30507 3.9348 9.40227 3.94493C9.51893 3.95693 9.60813 4.0508 9.59947 4.1676C9.59 4.29453 9.5588 4.46147 9.46973 4.60387C9.40333 4.70987 9.11373 4.78987 8.93333 4.7992C8.93333 4.7992 9.17307 5.4384 9.17307 5.76947C9.17307 5.94609 9.17333 6.12107 9.17387 6.2944C8.05708 6.19466 6.93243 6.35712 5.88953 6.76883C4.84662 7.18055 3.91429 7.83015 3.1668 8.66587H2.22413C2.0856 8.66587 1.974 8.55667 1.97227 8.42093C1.9664 7.82173 1.96827 7.2464 1.9704 6.66333C1.97133 6.36867 1.97227 6.07213 1.97227 5.76947C1.97227 5.4384 2.13333 4.7992 2.13333 4.7992C1.95293 4.78987 1.79667 4.70987 1.73027 4.60387M3.06667 4.79907L3.56587 3.26707C3.56587 3.26707 3.61413 3.1996 3.6556 3.19907H7.50227C7.54387 3.1996 7.592 3.26707 7.592 3.26707L8.13333 4.79933L3.06667 4.79907Z" fill="var(--fill-0, #303030)"/>
<path d="M1.7304 4.604C1.64107 4.46133 1.61 4.29453 1.60053 4.1676C1.59187 4.0508 1.68107 3.95693 1.79773 3.94493C1.8968 3.93467 2.52173 3.94373 2.52173 3.94373C2.52173 3.94373 2.79013 3.20867 3.01107 2.75173C3.1196 2.5268 3.40093 2.53067 3.57693 2.53307C3.59418 2.53333 3.61018 2.53351 3.62493 2.5336H7.57253C7.58764 2.5336 7.6036 2.53342 7.6204 2.53307C7.79067 2.53067 8.03853 2.52707 8.14707 2.75173C8.3684 3.21013 8.67853 3.94493 8.67853 3.94493C8.67853 3.94493 9.30507 3.9348 9.40227 3.94493C9.51893 3.95693 9.60813 4.0508 9.59947 4.1676C9.59 4.29453 9.5588 4.46147 9.46973 4.60387C9.40333 4.70987 9.11373 4.78987 8.93333 4.7992C8.93333 4.7992 9.17307 5.4384 9.17307 5.76947C9.17307 5.94609 9.17333 6.12107 9.17387 6.2944C8.05708 6.19466 6.93243 6.35712 5.88953 6.76883C4.84662 7.18055 3.91429 7.83015 3.1668 8.66587H2.22413C2.0856 8.66587 1.974 8.55667 1.97227 8.42093C1.9664 7.82173 1.96827 7.2464 1.9704 6.66333C1.97133 6.36867 1.97227 6.07213 1.97227 5.76947C1.97227 5.4384 2.13333 4.7992 2.13333 4.7992C1.95293 4.78987 1.79667 4.70987 1.73027 4.60387M3.06667 4.79907L3.56587 3.26707C3.56587 3.26707 3.61413 3.1996 3.6556 3.19907H7.50227C7.54387 3.1996 7.592 3.26707 7.592 3.26707L8.13333 4.79933L3.06667 4.79907Z" stroke="var(--stroke-0, black)" stroke-width="0.133333"/>
</g>
<path id="Vector_2" d="M14.5629 7.36693L13.7456 6.77787L14.6667 5.46413L13.7792 4.84147L12.8485 6.16813L12.028 5.59187C12.0114 5.58012 11.9917 5.5736 11.9713 5.57313C11.951 5.57266 11.931 5.57826 11.9138 5.58923C11.8967 5.60019 11.8832 5.61602 11.8751 5.63468C11.867 5.65334 11.8647 5.674 11.8684 5.694L12.2707 7.94467L14.5199 7.55053C14.5399 7.54705 14.5584 7.53775 14.5731 7.52381C14.5879 7.50987 14.5982 7.49189 14.6028 7.47213C14.6074 7.45236 14.606 7.43168 14.5989 7.41267C14.5919 7.39365 14.5793 7.37714 14.5629 7.3652V7.36693ZM6.40133 11.1516L8.85413 12.7243C9.09347 12.8883 9.25587 13.1599 9.26373 13.4644C9.276 13.9444 8.89707 14.3205 8.4184 14.3051C8.12133 14.2955 7.85613 14.1371 7.69493 13.9035L7.694 13.9021C7.68947 13.8959 7.68507 13.8885 7.68067 13.8823L6.11 11.4449C6.08102 11.4045 6.06731 11.3552 6.07132 11.3056C6.07533 11.2561 6.0968 11.2096 6.1319 11.1744C6.167 11.1392 6.21346 11.1176 6.263 11.1134C6.31253 11.1093 6.36193 11.1229 6.4024 11.1517L6.40133 11.1516Z" fill="var(--fill-0, #303030)" stroke="var(--stroke-0, black)" stroke-width="0.133333"/>
<path id="Vector_3" fill-rule="evenodd" clip-rule="evenodd" d="M5.32773 10.2604C4.47761 11.1106 4.00001 12.2636 4 13.4659H2.66667C2.66667 11.9099 3.28476 10.4177 4.38497 9.31751C5.48519 8.21729 6.9774 7.5992 8.53333 7.5992C10.0893 7.5992 11.5815 8.21729 12.6817 9.31751C13.7819 10.4177 14.4 11.9099 14.4 13.4659H13.0667C13.0667 12.5693 12.8008 11.6928 12.3026 10.9473C11.8045 10.2018 11.0965 9.62074 10.2681 9.27763C9.43975 8.93452 8.52825 8.84475 7.64886 9.01969C6.76948 9.19462 5.96172 9.62639 5.32773 10.2604Z" fill="var(--fill-0, #303030)" stroke="var(--stroke-0, black)" stroke-width="0.133333"/>
</g>
</svg>
