<svg preserveAspectRatio="none" width="100%" height="100%" overflow="visible" style="display: block;" viewBox="0 0 222.882 59.6245" fill="none" xmlns="http://www.w3.org/2000/svg">
<g id="Group 2131329122">
<g id="Group">
<path id="Vector" d="M29.5071 59.6245H29.626C45.9263 59.6245 59.1331 46.3412 59.1331 29.8122C59.1331 13.2833 45.9858 0 29.626 0H29.5071C13.1473 0 0 13.2833 0 29.8122C0 46.3412 13.2068 59.6245 29.5071 59.6245Z" fill="var(--fill-0, #00FFFF)"/>
<path id="Vector_2" d="M29.5366 56.5664H29.5961C46.1344 56.5664 57.4375 45.6273 57.4375 30.9015C57.4375 16.1757 45.0635 1.87061 29.5961 1.87061H29.5366C14.0692 1.87061 1.69531 15.5145 1.69531 30.9015C1.69531 46.2884 12.9984 56.5664 29.5366 56.5664Z" fill="var(--fill-0, #00EDED)"/>
<path id="Vector_3" d="M30.756 53.5378C48.96 53.5378 55.7419 43.5603 55.7419 31.8998C55.7419 15.9118 42.9515 3.71045 29.5662 3.71045C16.181 3.71045 3.39062 15.9118 3.39062 31.8998C3.39062 43.5603 10.1725 53.5378 28.3764 53.5378H30.756Z" fill="var(--fill-0, #00DCDC)"/>
<path id="Vector_4" d="M34.1462 50.4788H24.9847C9.45785 50.4788 4.99609 42.064 4.99609 33.1684C4.99609 19.224 16.6561 5.58008 29.506 5.58008H29.625C42.4748 5.58008 54.1349 19.224 54.1349 33.1684C54.1349 42.064 49.6731 50.4788 34.1462 50.4788Z" fill="var(--fill-0, #00CACA)"/>
<path id="Vector_5" d="M18.4401 47.6519C22.2474 47.6519 25.7574 47.4114 29.5052 47.4114H29.6242C33.3721 47.4114 36.882 47.6519 40.6894 47.6519C48.4231 47.6519 52.5279 41.2807 52.5279 33.4069C52.5279 21.9869 40.9868 7.44141 29.6242 7.44141H29.5052C18.1426 7.44141 6.60156 21.9869 6.60156 33.4069C6.60156 41.2807 10.7064 47.6519 18.4401 47.6519Z" fill="var(--fill-0, #00B8B8)"/>
<path id="Vector_6" d="M17.4299 45.6664C20.7019 45.6664 24.3308 44.4042 29.5064 44.4042H29.6254C34.801 44.4042 38.4299 45.6664 41.7019 45.6664C47.9483 45.6664 50.9228 40.4974 50.9228 34.547C50.9228 28.5965 47.5319 22.1052 43.903 17.8978C40.5121 13.9308 35.8124 9.30273 29.6254 9.30273H29.5064C23.3195 9.30273 18.6197 13.9308 15.2288 17.8978C11.5999 22.1052 8.20898 28.3561 8.20898 34.547C8.20898 40.7378 11.1835 45.6664 17.4299 45.6664Z" fill="var(--fill-0, #00A6A6)"/>
<path id="Vector_7" d="M16.3017 43.8663C20.0496 43.8663 23.9759 41.2216 29.5085 41.2216H29.6275C35.1601 41.2216 39.0864 43.8663 42.8343 43.8663C46.8796 43.8663 49.3782 39.8993 49.3782 35.151C49.3782 29.5011 45.6898 23.0698 42.0014 18.8625C38.1346 14.4748 34.5057 11.1089 29.6275 11.1089H29.5085C24.6303 11.1089 21.0014 14.4748 17.1346 18.8625C13.4462 23.0698 9.75781 29.5011 9.75781 35.151C9.75781 39.8993 12.2564 43.8663 16.3017 43.8663Z" fill="var(--fill-0, #009494)"/>
<path id="Vector_8" d="M16.33 42.3562C19.7804 42.3562 23.6473 38.2691 29.3583 38.2691H29.7748C35.4858 38.2691 39.3527 42.3562 42.8031 42.3562C45.8371 42.3562 47.8597 39.2909 47.8597 35.925C47.8597 31.4171 44.2903 25.3464 41.4348 21.8002C38.2818 17.8333 34.296 13.0248 29.7748 13.0248H29.3583C24.8371 13.0248 20.8513 17.8333 17.6983 21.8002C14.8428 25.3464 11.2734 31.4171 11.2734 35.925C11.2734 39.2909 13.296 42.3562 16.33 42.3562Z" fill="var(--fill-0, #008383)"/>
<path id="Vector_9" d="M29.3282 35.2487C26.2347 35.2487 23.5577 37.112 21.0591 38.7349C18.7985 40.1774 17.6681 40.8385 16.4189 40.8385C14.3367 40.8385 12.7305 39.0354 12.7305 36.4509C12.7305 32.1233 17.3707 25.8122 19.9883 22.3862C22.4273 19.2006 25.4613 14.873 29.3877 14.873H29.7446C33.671 14.873 36.705 19.2006 39.144 22.3862C41.7616 25.8122 46.4018 32.1233 46.4018 36.4509C46.4018 39.0354 44.7956 40.8385 42.7134 40.8385C41.4642 40.8385 40.3338 40.1774 38.0732 38.7349C35.5746 37.112 32.8976 35.2487 29.8041 35.2487H29.3282Z" fill="var(--fill-0, #007171)"/>
<path id="Vector_10" d="M29.5651 16.7476C26.888 16.7476 25.5792 18.3704 23.2591 21.4959C20.4036 25.4027 17.5481 29.6702 15.7039 32.5553C14.3951 34.6589 14.0977 35.6807 14.0977 36.5222C14.0977 38.2653 15.2875 39.3472 16.8342 39.3472C18.2025 39.3472 19.2138 38.5057 21.177 36.8828C23.854 34.5988 26.4121 32.1946 29.5651 32.1946C32.718 32.1946 35.2761 34.5988 37.9532 36.8828C39.9163 38.5057 40.9277 39.3472 42.2959 39.3472C43.8427 39.3472 45.0325 38.2653 45.0325 36.5222C45.0325 35.6807 44.735 34.6589 43.4262 32.5553C41.5821 29.6702 38.7265 25.4027 35.871 21.4959C33.5509 18.3704 32.2421 16.7476 29.5651 16.7476Z" fill="var(--fill-0, black)"/>
<path id="Vector_11" d="M44.0738 33.6467C41.6147 29.7173 38.7632 25.4634 35.8804 21.5397C33.5777 18.406 32.4234 16.7803 29.5919 16.7803H29.5379C26.7063 16.7803 25.5521 18.4031 23.2493 21.5397C20.3694 25.4634 17.5151 29.7173 15.0559 33.6467C14.2485 34.9363 13.1995 37.6019 15.326 38.9346C15.8804 39.2822 16.3921 39.4258 16.8783 39.4258C18.0893 39.4258 19.1299 38.5239 20.2358 37.6019C23.8122 34.6204 26.5044 32.245 29.5379 32.245H29.589C32.6224 32.245 35.3176 34.6175 38.8911 37.6019C39.997 38.5239 41.0375 39.4258 42.2486 39.4258C42.7348 39.4258 43.2465 39.2793 43.8009 38.9346C45.9274 37.6019 44.8783 34.9392 44.071 33.6467H44.0738Z" fill="var(--fill-0, black)"/>
</g>
<g id="Vector_12">
<path d="M93.4683 19.8923C92.6467 18.6658 91.7285 18.2349 90.3497 18.2349H84.2743C82.8955 18.2349 81.9772 18.6658 81.1556 19.8923L67.6602 40.0647H72.9139L75.211 36.7127C75.7682 35.8826 76.3937 35.4518 77.4768 35.4518H97.1442C98.2274 35.4518 98.8529 35.8826 99.4101 36.7127L101.707 40.0647H106.961L93.4683 19.8923ZM83.6517 23.8389C84.1435 23.0748 84.7349 22.4458 85.9488 22.4458H88.6752C89.8891 22.4458 90.4491 23.0748 90.9722 23.8389L95.8052 31.037H78.8158L83.6488 23.8389H83.6517Z" fill="var(--fill-0, white)"/>
<path d="M148.093 30.1781V28.1215C148.093 25.2693 147.831 24.1405 150.685 23.2788C153.378 22.4831 158.762 22.216 160.57 22.216C162.378 22.216 167.76 22.4803 170.452 23.2788C173.309 24.1405 173.045 25.2693 173.045 28.1215V30.1781C173.045 33.0304 173.307 34.1592 170.452 35.0209C167.76 35.8165 162.375 36.0837 160.57 36.0837C158.765 36.0837 153.378 35.8194 150.685 35.0209C147.828 34.1592 148.093 33.0304 148.093 30.1781ZM143.595 25.1688V33.1309C143.595 36.2158 143.956 37.6749 147.14 38.9359C149.932 40.0303 155.316 40.7943 160.57 40.7943C165.824 40.7943 171.208 40.0303 174 38.9359C177.184 37.6749 177.545 36.2158 177.545 33.1309V25.1688C177.545 22.0839 177.184 20.6247 174 19.3638C171.208 18.2694 165.824 17.5054 160.57 17.5054C155.316 17.5054 149.932 18.2694 147.14 19.3638C143.956 20.6247 143.595 22.0839 143.595 25.1688Z" fill="var(--fill-0, white)"/>
<path d="M119.052 40.0647H123.453V24.1405C123.453 22.8795 123.979 22.4487 125.161 22.4487H139.052L137.773 19.763C137.215 18.5681 136.425 18.2378 135.112 18.2378H107.399C106.085 18.2378 105.298 18.5681 104.738 19.763L103.458 22.4487H117.349C118.532 22.4487 119.058 22.8795 119.058 24.1405V40.0647H119.052Z" fill="var(--fill-0, white)"/>
<path d="M205.088 32.8666C206.631 32.8666 207.319 32.3697 207.911 31.5712L216.184 20.2571C217.267 18.7635 217.989 18.2349 219.763 18.2349H222.882V40.0647H218.481V24.2065L210.043 35.9831C209.156 37.2096 208.138 37.7094 206.725 37.7094H201.21C199.797 37.7094 198.748 37.2125 197.861 35.9831L189.389 24.2381V40.0619H184.988V18.2349H188.107C189.881 18.2349 190.634 18.8324 191.686 20.2571L199.962 31.5712C200.553 32.3669 201.241 32.8666 202.785 32.8666H205.088Z" fill="var(--fill-0, white)"/>
</g>
</g>
</svg>
