<svg preserveAspectRatio="none" width="100%" height="100%" overflow="visible" style="display: block;" viewBox="0 0 140 46" fill="none" xmlns="http://www.w3.org/2000/svg">
<g id="Frame">
<path id="Vector" d="M36.686 37.498C44.968 37.498 49.674 32.188 49.674 23.421V22.573C49.674 13.806 44.968 8.496 36.686 8.496H27.7C26.326 8.496 25.539 9.268 25.539 10.614V35.386C25.539 36.732 26.326 37.504 27.699 37.504H36.686V37.498ZM35.277 17.264H36.727C39.516 17.264 39.865 19.765 39.865 22.997C39.865 26.229 39.51 28.73 36.727 28.73H35.277V17.264ZM72.71 37.498C74.125 37.498 74.752 36.535 74.083 35.229L67.607 22.382L73.687 10.765C74.391 9.459 73.847 8.496 72.39 8.496H65.446C64.7 8.496 64.031 8.96 63.682 9.686L61.012 15.303L58.342 9.686C57.987 8.955 57.324 8.496 56.578 8.496H49.634C48.184 8.496 47.633 9.459 48.337 10.765L54.417 22.382L47.941 35.229C47.271 36.535 47.899 37.499 49.314 37.499H56.377C57.164 37.499 57.869 36.999 58.182 36.227L61.006 29.572L63.83 36.227C64.144 36.999 64.848 37.498 65.636 37.498H72.71ZM11.142 37.498C19.424 37.498 24.131 32.188 24.131 23.421V22.573C24.131 13.806 19.424 8.496 11.142 8.496H2.162C0.787 8.496 0 9.268 0 10.614V35.386C0 36.732 0.787 37.504 2.16 37.504H11.147L11.142 37.498ZM9.886 17.264H11.336C14.125 17.264 14.474 19.765 14.474 22.997C14.474 26.229 14.119 28.73 11.337 28.73H9.887L9.886 17.264Z" fill="var(--fill-0, #FF7D20)"/>
<path id="Vector_2" d="M124.5 37.994C128.07 37.994 129.094 34.837 129.094 31.264C129.094 28.919 128.975 27.532 128.076 25.379C127.48 24.1121 126.838 22.8676 126.152 21.648C125.447 20.378 124.109 18.108 123.914 16.571C123.837 16.031 123.795 15.184 123.795 14.111C123.795 13.263 123.754 12.073 124.618 12.073C125.364 12.073 125.406 13.344 125.406 14.075V17.192H129.171V14.656C129.171 11.116 128.188 8 124.577 8C120.77 8 119.983 11.424 119.983 14.731C119.983 16.884 120.101 18.578 121.043 20.499C121.433 21.381 122.025 22.576 122.807 24.114C123.67 25.616 124.258 26.732 124.571 27.462C125.317 29.157 125.358 30.155 125.358 31.884C125.358 32.731 125.358 33.886 124.494 33.886C123.63 33.886 123.63 32.772 123.63 31.925V28.425H119.823V31.385C119.823 34.925 120.883 38 124.494 38L124.5 37.994ZM134.937 37.994C138.507 37.994 139.531 34.837 139.531 31.264C139.531 28.919 139.412 27.532 138.512 25.379C137.917 24.1117 137.275 22.8672 136.588 21.648C135.884 20.378 134.546 18.108 134.351 16.571C134.274 16.031 134.232 15.184 134.232 14.111C134.232 13.263 134.191 12.073 135.055 12.073C135.801 12.073 135.843 13.344 135.843 14.075V17.192H139.608V14.656C139.608 11.116 138.625 8 135.014 8C131.207 8 130.42 11.424 130.42 14.731C130.42 16.884 130.538 18.578 131.48 20.499C131.87 21.381 132.462 22.576 133.244 24.114C134.106 25.616 134.694 26.732 135.008 27.462C135.754 29.157 135.795 30.155 135.795 31.884C135.795 32.731 135.795 33.886 134.931 33.886C134.067 33.886 134.067 32.772 134.067 31.925V28.425H130.26V31.385C130.26 34.925 131.32 38 134.931 38L134.937 37.994ZM118.888 37.495V33.265H115.555V24.88H118.538V20.61H115.555V12.723H118.811V8.493H111.825V37.495H118.888ZM103.306 37.495L103.111 24.955C103.043 22.4805 102.953 20.0068 102.839 17.534H102.88L105.864 37.495H109.593V8.493H106.059L106.219 21.108C106.219 22.646 106.337 25.106 106.491 28.454H106.414L103.62 8.494H99.8546V37.495H103.306ZM96.0476 37.495V12.723H98.5226V8.493H89.8146V12.723H92.2886V37.495H96.0536H96.0476ZM84.8236 8.493H88.5536V37.495H84.8236V8.493ZM80.0756 37.495V25.42H83.0596V21.265H80.0756V12.729H83.3736V8.493H76.3516V37.495H80.0816H80.0756Z" fill="var(--fill-0, #13D8D8)"/>
</g>
</svg>
