<svg preserveAspectRatio="none" width="100%" height="100%" overflow="visible" style="display: block;" viewBox="0 0 130 25" fill="none" xmlns="http://www.w3.org/2000/svg">
<g id="kaspersky-logo-v2 1" clip-path="url(#clip0_564_41247)">
<path id="Vector" d="M58.5478 12.5943C58.5478 17.5943 55.5299 19.9528 51.8156 19.9528H49.5406V16.9811H51.6763C53.9513 16.9811 55.437 15.7547 55.437 12.6415C55.437 9.57547 53.9978 8.01887 51.5835 8.01887C49.2621 8.01887 47.5906 9.48113 47.5906 12.5943V25.1415H44.4799V5.37736H47.5906V7.07547H48.0549C49.0763 5.66038 50.6549 5 52.2335 5C55.6692 5 58.5478 7.54717 58.5478 12.5943ZM37.9799 11.3208L35.8906 11.1321C34.2656 10.9906 33.3835 10.5189 33.3835 9.57547C33.3835 8.4434 34.4978 7.78302 36.0763 7.78302C37.7013 7.78302 38.7692 8.58491 38.862 9.66981H41.8799C41.7406 6.83962 39.6049 5.09434 36.1228 5.09434C32.6406 5.09434 30.2728 6.98113 30.2728 9.71698C30.2728 12.0283 31.7121 13.4906 34.9621 13.8208L37.0978 14.0094C38.3978 14.1509 39.2335 14.3868 39.2335 15.6604C39.2335 16.7925 38.4442 17.5943 36.3085 17.5943C34.3585 17.5943 33.3835 16.6981 33.0585 15.4717H29.8085C30.1335 18.2075 32.4085 20.3774 36.3085 20.3774C39.9763 20.3774 42.3442 18.3962 42.3442 15.5189C42.3442 12.8774 40.6728 11.6038 37.9799 11.3208ZM70.6656 15.4245C70.1549 16.5566 68.9942 17.4528 67.3228 17.4528C65.0478 17.4528 63.3299 15.9434 63.3299 12.6887C63.3299 9.57547 64.9085 7.83019 67.3692 7.83019C69.5513 7.83019 70.8049 9.15094 70.8978 11.1792H65.2799V13.4906H73.9621V11.9811C73.9621 7.78302 71.2228 5.04717 67.3228 5.04717C63.7013 5.04717 60.2192 7.54717 60.2192 12.6887C60.2192 17.8302 63.7013 20.3302 67.3228 20.3302C70.6656 20.3302 73.0335 18.2547 73.7299 15.4245H70.6656ZM21.3585 5C17.9228 5 15.3692 6.79245 15.0906 9.57547H18.4335C18.6656 8.53774 19.5942 7.78302 21.3585 7.78302C23.6335 7.78302 24.3763 9.00943 24.3763 10.4717V15.4717C23.0763 16.934 21.5906 17.6415 20.1049 17.6415C18.5728 17.6415 17.5049 16.8868 17.5049 15.5189C17.5049 14.1981 18.3406 13.3962 19.9656 13.3962H22.4728V11.0849H19.8728C16.2978 11.0849 14.3013 12.8774 14.3013 15.6604C14.3013 18.2547 16.2513 20.2358 19.4085 20.2358C21.1728 20.2358 22.7513 19.5283 23.9121 18.6321H24.3763V19.8585H27.4871V10.2358C27.4871 6.60377 25.0728 5 21.3585 5ZM0.140625 19.9528H3.25134V0H0.140625V19.9528ZM13.2799 5.37736H9.47277L4.92277 11.4623V13.3491L9.61205 19.9528H13.4656L7.98705 12.4057L13.2799 5.37736ZM126.287 5.37736L123.733 11.1321C123.13 12.5472 122.526 13.8679 122.341 14.8113H121.876C121.691 13.9151 121.087 12.5943 120.437 11.1792L117.93 5.37736H114.494L120.53 18.4906L117.558 25.0943H120.901L129.816 5.37736H126.287ZM113.751 5.37736H109.944L105.394 11.4623V13.3491L110.083 19.9528H113.937L108.458 12.4057L113.751 5.37736ZM94.2049 11.3208L92.1156 11.1321C90.4906 10.9906 89.6085 10.5189 89.6085 9.57547C89.6085 8.4434 90.7228 7.78302 92.3013 7.78302C93.9263 7.78302 94.9942 8.58491 95.0871 9.66981H98.1049C97.9656 6.83962 95.8299 5.09434 92.3478 5.09434C88.8656 5.09434 86.4978 6.98113 86.4978 9.71698C86.4978 12.0283 87.937 13.4906 91.187 13.8208L93.3228 14.0094C94.6228 14.1509 95.4585 14.3868 95.4585 15.6604C95.4585 16.7925 94.6692 17.5943 92.5335 17.5943C90.5835 17.5943 89.6085 16.6981 89.2835 15.4717H86.0335C86.3585 18.2075 88.6335 20.3774 92.5335 20.3774C96.2013 20.3774 98.5692 18.3962 98.5692 15.5189C98.5228 12.8774 96.8513 11.6038 94.2049 11.3208ZM100.612 19.9528H103.723V0H100.612V19.9528ZM79.9978 7.07547H79.5335V5.37736H76.4228V19.9528H79.5335V12.3585C79.5335 9.76415 80.6942 8.25472 83.062 8.25472H85.0585V5.04717H83.8978C81.762 5 80.8335 5.84906 79.9978 7.07547Z" fill="var(--fill-0, #00A88E)"/>
</g>
<defs>
<clipPath id="clip0_564_41247">
<rect width="130" height="25" fill="white"/>
</clipPath>
</defs>
</svg>
