<svg preserveAspectRatio="none" width="100%" height="100%" overflow="visible" style="display: block;" viewBox="0 0 171 17.9997" fill="none" xmlns="http://www.w3.org/2000/svg">
<g id="Group">
<path id="Vector" fill-rule="evenodd" clip-rule="evenodd" d="M9.0045 6.15119e-07C10.7849 0.0003442 12.5253 0.528296 14.0058 1.51717C15.4863 2.50605 16.6405 3.9115 17.3228 5.556C18.0043 7.20046 18.1827 9.01014 17.8353 10.756C17.4879 12.5019 16.6304 14.1054 15.3713 15.3638C14.112 16.6223 12.5079 17.4794 10.7617 17.8267C9.01552 18.174 7.20557 17.9958 5.56058 17.3148C3.91559 16.6338 2.50939 15.4804 1.51966 14.0005C0.529934 12.5205 0.00110607 10.7804 0 9C0 6.61275 0.94875 4.32375 2.637 2.63625C3.47313 1.80006 4.46585 1.13685 5.55842 0.684505C6.65099 0.232163 7.82199 -0.000436562 9.0045 6.15119e-07ZM45.0195 6.15119e-07C46.8 0.000195962 48.5405 0.528079 50.0212 1.51697C51.5019 2.50585 52.6562 3.91138 53.3385 5.556C54.0199 7.20053 54.1982 9.01025 53.8507 10.7561C53.5032 12.502 52.6455 14.1055 51.3862 15.3638C50.127 16.6223 48.5229 17.4794 46.7767 17.8267C45.0305 18.174 43.2206 17.9958 41.5756 17.3148C39.9306 16.6338 38.5244 15.4804 37.5347 14.0005C36.5449 12.5205 36.0161 10.7804 36.015 9C36.015 6.61275 36.9637 4.32375 38.6527 2.63625C39.4888 1.80015 40.4814 1.13699 41.5738 0.684649C42.6663 0.232309 43.8371 -0.000338016 45.0195 6.15119e-07ZM72.0322 10.956H74.49C74.56 12.2915 75.4295 12.958 77.0985 12.9555C78.7065 12.9555 79.51 12.4393 79.509 11.4068C79.509 10.7483 78.9435 10.2828 77.8125 10.0103L74.829 9.24825C73.914 9.02825 73.2415 8.65525 72.8115 8.12925C72.3805 7.60425 72.1655 6.9065 72.1665 6.036C72.1515 5.51985 72.2515 5.00682 72.4593 4.53411C72.6671 4.06141 72.9775 3.64087 73.368 3.303C74.1675 2.5935 75.3242 2.23925 76.8382 2.24025C78.2347 2.24025 79.3508 2.5795 80.1863 3.258C81.0218 3.9365 81.4873 4.9195 81.5828 6.207H79.1182C78.9377 4.9635 78.1277 4.34175 76.6882 4.34175C76.0332 4.34175 75.5095 4.469 75.117 4.7235C74.9386 4.83033 74.7915 4.9822 74.6904 5.16387C74.5893 5.34554 74.5378 5.55062 74.541 5.7585C74.5335 6.05475 74.6385 6.34275 74.8372 6.5625C75.1117 6.81375 75.45 6.9825 75.8152 7.0515L78.774 7.7805C79.995 8.0735 80.83 8.48475 81.279 9.01425C81.7285 9.54325 81.9578 10.237 81.9668 11.0955C81.9834 11.6362 81.8791 12.1739 81.6617 12.6692C81.4442 13.1646 81.119 13.6052 80.7097 13.959C79.8757 14.689 78.6633 15.0538 77.0723 15.0533C75.5893 15.0533 74.3782 14.7043 73.4392 14.0063C72.5002 13.3083 72.0312 12.2915 72.0322 10.956ZM83.7473 2.5515H86.2732V14.7353H83.7473V2.5515ZM88.695 2.5515H91.221V12.6015H97.3065V14.7353H88.695V2.5515ZM98.1075 14.7353L102.472 2.5515H105.387L109.762 14.7353H107.011L106.222 12.195H101.645L100.782 14.7353H98.1075ZM102.355 10.059H105.466L103.931 5.31675L102.355 10.059ZM115.367 10.956H117.825C117.897 12.2915 118.766 12.958 120.433 12.9555C122.04 12.9555 122.844 12.4393 122.844 11.4068C122.844 10.7483 122.279 10.2828 121.149 10.0103L118.157 9.24825C117.243 9.02475 116.571 8.65 116.141 8.124C115.71 7.599 115.495 6.90125 115.496 6.03075C115.481 5.51459 115.58 5.00142 115.788 4.52864C115.996 4.05585 116.306 3.63535 116.697 3.29775C117.497 2.58825 118.653 2.234 120.166 2.235C121.562 2.235 122.678 2.57425 123.514 3.25275C124.349 3.93125 124.815 4.91425 124.911 6.20175H122.446C122.267 4.95825 121.457 4.3365 120.016 4.3365C119.362 4.3365 118.838 4.464 118.444 4.719C118.264 4.8263 118.115 4.97975 118.013 5.16361C117.911 5.34747 117.86 5.55511 117.865 5.76525C117.857 6.0615 117.963 6.3495 118.162 6.56925C118.436 6.81975 118.774 6.98925 119.14 7.05825L122.107 7.78725C123.328 8.08075 124.163 8.492 124.614 9.021C125.064 9.55 125.293 10.244 125.3 11.103C125.316 11.643 125.21 12.1795 124.992 12.6736C124.773 13.1677 124.448 13.6068 124.038 13.959C123.203 14.689 121.991 15.0538 120.401 15.0533C118.918 15.0533 117.706 14.7043 116.767 14.0063C115.828 13.3088 115.359 12.292 115.36 10.956H115.367ZM131.654 11.6888L134.243 2.5515H136.892L132.789 14.7353H130.381L126.277 2.5515H129.006L131.654 11.6888ZM138.637 14.7353V2.5515H147.655V4.68675H141.147V7.26225H147.131V9.39825H141.147V12.6015H147.912V14.7353H138.637ZM148.893 2.5515H158.843V4.68675H155.117V14.7353H152.59V4.6875H148.877L148.893 2.5515ZM159.351 14.7353L163.715 2.5515H166.625L171 14.7353H168.237L167.448 12.195H162.872L162.017 14.7353H159.351ZM163.598 10.059H166.709L165.159 5.31675L163.598 10.059Z" fill="var(--fill-0, black)"/>
</g>
</svg>
