<svg preserveAspectRatio="none" width="100%" height="100%" overflow="visible" style="display: block;" viewBox="0 0 1408 211" fill="none" xmlns="http://www.w3.org/2000/svg">
<g id="logo">
<path d="M234.104 21.6257C226.651 10.5136 218.322 6.61001 205.814 6.61001H150.705C138.198 6.61001 129.868 10.5136 122.416 21.6257L0 204.39H47.6562L68.4931 174.02C73.5476 166.5 79.2209 162.596 89.0461 162.596H267.447C277.273 162.596 282.946 166.5 288.001 174.02L308.837 204.39H356.494L234.104 21.6257ZM145.058 57.3822C149.519 50.4599 154.883 44.7607 165.895 44.7607H190.625C201.637 44.7607 206.717 50.4599 211.462 57.3822L255.301 122.598H101.192L145.032 57.3822H145.058Z" fill="var(--fill-0, white)"/>
<path d="M729.595 114.816V96.1835C729.595 70.342 727.222 60.1147 753.113 52.3076C777.535 45.099 826.377 42.6788 842.778 42.6788C859.18 42.6788 907.996 45.073 932.418 52.3076C958.335 60.1147 955.936 70.342 955.936 96.1835V114.816C955.936 140.658 958.309 150.885 932.418 158.692C907.996 165.901 859.154 168.321 842.778 168.321C826.403 168.321 777.535 165.927 753.113 158.692C727.196 150.885 729.595 140.658 729.595 114.816ZM688.798 69.4312V141.569C688.798 169.518 692.073 182.738 720.956 194.163C746.28 204.078 795.122 211 842.778 211C890.435 211 939.277 204.078 964.601 194.163C993.484 182.738 996.759 169.518 996.759 141.569V69.4312C996.759 41.4817 993.484 28.2617 964.601 16.8373C939.277 6.9223 890.435 0 842.778 0C795.122 0 746.28 6.9223 720.956 16.8373C692.073 28.2617 688.798 41.4817 688.798 69.4312Z" fill="var(--fill-0, white)"/>
<path d="M466.17 204.39H506.09V60.1147C506.09 48.6903 510.861 44.7867 521.589 44.7867H647.589L635.984 20.4546C630.93 9.62875 623.761 6.63603 611.847 6.63603H360.465C348.551 6.63603 341.408 9.62875 336.327 20.4546L324.723 44.7867H450.723C461.451 44.7867 466.222 48.6903 466.222 60.1147V204.39H466.17Z" fill="var(--fill-0, white)"/>
<path d="M1246.59 139.175C1260.6 139.175 1266.84 134.673 1272.2 127.438L1347.24 24.9307C1357.07 11.3984 1363.62 6.61001 1379.71 6.61001H1408V204.39H1368.08V60.7132L1291.54 167.41C1283.5 178.522 1274.26 183.051 1261.45 183.051H1211.42C1198.6 183.051 1189.09 178.548 1181.04 167.41L1104.19 60.9995V204.364H1064.27V6.61001H1092.56C1108.65 6.61001 1115.49 12.0229 1125.03 24.9307L1200.1 127.438C1205.46 134.646 1211.7 139.175 1225.7 139.175H1246.59Z" fill="var(--fill-0, white)"/>
</g>
</svg>
