<svg preserveAspectRatio="none" width="100%" height="100%" overflow="visible" style="display: block;" viewBox="0 0 358 55" fill="none" xmlns="http://www.w3.org/2000/svg">
<g id="Frame 2131333516">
<g id="logo">
<path d="M59.5235 5.63702C57.6286 2.7405 55.5107 1.72299 52.3306 1.72299H38.3186C35.1385 1.72299 33.0205 2.7405 31.1256 5.63702L0 53.277H12.1171L17.4152 45.3608C18.7003 43.4003 20.1428 42.3828 22.641 42.3828H68.0015C70.4997 42.3828 71.9423 43.4003 73.2275 45.3608L78.5254 53.277H90.6425L59.5235 5.63702ZM36.8825 14.9575C38.0169 13.1531 39.3808 11.6675 42.1806 11.6675H48.4686C51.2684 11.6675 52.5601 13.1531 53.7666 14.9575L64.9133 31.9567H25.7293L36.876 14.9575H36.8825Z" fill="var(--fill-0, white)"/>
<path d="M185.508 29.9285V25.0715C185.508 18.3356 184.905 15.6697 191.488 13.6347C197.697 11.7557 210.116 11.1248 214.286 11.1248C218.456 11.1248 230.868 11.7489 237.078 13.6347C243.667 15.6697 243.058 18.3356 243.058 25.0715V29.9285C243.058 36.6644 243.661 39.3303 237.078 41.3653C230.868 43.2443 218.45 43.8752 214.286 43.8752C210.122 43.8752 197.697 43.2511 191.488 41.3653C184.898 39.3303 185.508 36.6644 185.508 29.9285ZM175.135 18.0982V36.9018C175.135 44.1872 175.967 47.6332 183.311 50.6111C189.75 53.1956 202.169 55 214.286 55C226.403 55 238.822 53.1956 245.261 50.6111C252.605 47.6332 253.437 44.1872 253.437 36.9018V18.0982C253.437 10.8128 252.605 7.3668 245.261 4.38888C238.822 1.80439 226.403 0 214.286 0C202.169 0 189.75 1.80439 183.311 4.38888C175.967 7.3668 175.135 10.8128 175.135 18.0982Z" fill="var(--fill-0, white)"/>
<path d="M118.529 53.277H128.679V15.6697C128.679 12.6918 129.892 11.6743 132.62 11.6743H164.657L161.706 5.33177C160.421 2.50986 158.598 1.72977 155.569 1.72977H91.6523C88.623 1.72977 86.8068 2.50986 85.5151 5.33177L82.5645 11.6743H114.601C117.329 11.6743 118.542 12.6918 118.542 15.6697V53.277H118.529Z" fill="var(--fill-0, white)"/>
<path d="M316.96 36.2778C320.521 36.2778 322.108 35.1042 323.471 33.2184L342.552 6.49852C345.05 2.97114 346.716 1.72299 350.807 1.72299H358V53.277H347.85V15.8257L328.389 43.6378C326.343 46.5343 323.996 47.7146 320.737 47.7146H308.017C304.758 47.7146 302.339 46.5411 300.293 43.6378L280.753 15.9003V53.2702H270.603V1.72299H277.796C281.888 1.72299 283.625 3.13394 286.051 6.49852L305.138 33.2184C306.502 35.0974 308.089 36.2778 311.649 36.2778H316.96Z" fill="var(--fill-0, white)"/>
</g>
</g>
</svg>
