<svg preserveAspectRatio="none" width="100%" height="100%" overflow="visible" style="display: block;" viewBox="0 0 32 32" fill="none" xmlns="http://www.w3.org/2000/svg">
<g id="Frame 2131333767">
<g id="Vector">
<path d="M31.9446 29.9101C31.9446 29.5601 31.6525 29.2701 31.3 29.2701H11.2518C10.8992 29.2701 10.6072 29.5601 10.6072 29.9101V32H31.9446V29.9101Z" fill="var(--fill-0, black)"/>
<path d="M1.33594 9.53563V25.5552C1.33594 27.3102 2.78128 28.7452 4.55395 28.7452C6.32159 28.7452 7.76693 27.3102 7.76693 25.5552V18.2603C7.76693 16.6203 9.11155 15.2803 10.7684 15.2803H11.2871V14.2503H10.7684C8.53743 14.2503 6.72959 16.0503 6.72959 18.2602V25.5551C6.72959 26.7401 5.75263 27.7101 4.55907 27.7101C3.36049 27.7101 2.37849 26.7401 2.37849 25.5551V12.7252H3.35043C4.57419 12.7252 5.56627 11.7403 5.56627 10.5253V6.40535L8.80948 3.01542C9.00589 2.81043 8.99581 2.48545 8.78934 2.28545C8.58287 2.09045 8.25554 2.09545 8.0541 2.30045L5.72745 4.73542C5.71738 4.75042 5.70731 4.76042 5.69724 4.77042L1.48215 9.18026C1.38647 9.27526 1.33594 9.40562 1.33594 9.53563Z" fill="var(--fill-0, black)"/>
<path d="M12.3242 0.984975V28.2344H30.2221V0.984975C30.2221 0.444984 29.7839 0 29.235 0H13.3113C12.7674 0 12.3242 0.444984 12.3242 0.984975ZM24.3855 19.7146L21.7164 24.1446C21.6207 24.3046 21.4445 24.3946 21.2682 24.3946C21.1776 24.3946 21.0869 24.3746 21.0013 24.3246C20.7546 24.1796 20.674 23.8646 20.8251 23.6196L23.0207 19.9745H19.0071C18.8208 19.9745 18.6445 19.8695 18.5539 19.7095C18.4582 19.5445 18.4632 19.3446 18.5639 19.1896L21.2834 14.7595C21.4345 14.5146 21.7568 14.4396 21.9985 14.5845C22.2453 14.7345 22.3208 15.0546 22.1697 15.2946L19.9287 18.9396H23.9375C24.1239 18.9396 24.2951 19.0396 24.3908 19.1996C24.4864 19.3596 24.4812 19.5546 24.3855 19.7146ZM15.5624 3.36477C15.5624 3.07978 15.7941 2.84977 16.0811 2.84977H26.4603C26.7473 2.84977 26.979 3.07977 26.979 3.36477V10.4546C26.979 10.7396 26.7473 10.9696 26.4603 10.9696H16.086C15.7989 10.9696 15.5672 10.7396 15.5672 10.4546V3.36477H15.5624Z" fill="var(--fill-0, black)"/>
</g>
</g>
</svg>
