<svg preserveAspectRatio="none" width="100%" height="100%" overflow="visible" style="display: block;" viewBox="0 0 155 14" fill="none" xmlns="http://www.w3.org/2000/svg">
<g id="&#208;&#144;&#208;&#173;&#208;&#160;&#208;&#158;-&#208;&#187;&#208;&#190;&#208;&#179;&#208;&#190;&#209;&#130;&#208;&#184;&#208;&#191; 1">
<path id="Vector" d="M7.67758 7.61415L9.36412 4.33492L11.0507 7.61415H7.67758ZM16.485 13.0113L10.2336 0.734375H8.32973L2.1908 13.0113H4.9642L6.48577 9.99506H12.19L13.764 13.0113H16.485Z" fill="var(--fill-0, #7F7F7F)"/>
<path id="Vector_2" fill-rule="evenodd" clip-rule="evenodd" d="M55.8884 13.3353C59.4627 13.3353 62.3595 10.4423 62.3595 6.87373C62.3595 3.30514 59.4627 0.412207 55.8884 0.412207C52.9623 0.412207 50.4894 2.35158 49.6898 5.01329L52.1753 5.16582C52.8226 3.76488 54.2417 2.79261 55.8884 2.79261C57.7484 2.79261 59.3175 4.03271 59.8132 5.72988H53.4268V8.08926H59.7913C59.2732 9.74949 57.7221 10.9547 55.8884 10.9547C54.2691 10.9547 52.8703 10.0146 52.2081 8.6513L49.7111 8.80449C50.5332 11.43 52.9881 13.3353 55.8884 13.3353Z" fill="var(--fill-0, #7F7F7F)"/>
<path id="Vector_3" d="M102.471 5.70799H98.0109V3.06415H102.523C103.636 3.06415 104.119 3.58998 104.119 4.43717C104.119 5.23324 103.694 5.70799 102.471 5.70799ZM106.61 4.38605C106.61 2.05628 105.02 0.734375 102.574 0.734375H95.5643V13.0113H98.0033V8.08886C98.0033 8.08886 100.142 8.08886 102.574 8.08886C105.006 8.08886 106.61 6.93418 106.61 4.38605Z" fill="var(--fill-0, #7F7F7F)"/>
<path id="Vector_4" fill-rule="evenodd" clip-rule="evenodd" d="M146.312 13.3353C149.9 13.3353 152.809 10.4424 152.809 6.8738C152.809 3.3052 149.9 0.412271 146.312 0.412271C142.723 0.412271 139.814 3.3052 139.814 6.8738C139.814 10.4424 142.723 13.3353 146.312 13.3353ZM146.312 10.9549C148.578 10.9549 150.415 9.12774 150.415 6.8738C150.415 4.6199 148.578 2.79274 146.312 2.79274C144.045 2.79274 142.208 4.6199 142.208 6.8738C142.208 9.12774 144.045 10.9549 146.312 10.9549Z" fill="var(--fill-0, #7F7F7F)"/>
</g>
</svg>
