<svg preserveAspectRatio="none" width="100%" height="100%" overflow="visible" style="display: block;" viewBox="0 0 13.0001 13" fill="none" xmlns="http://www.w3.org/2000/svg">
<path id="Vector" d="M4.5 4.5V2.63346C4.5 1.88673 4.5 1.51308 4.64532 1.22787C4.77316 0.976982 4.97698 0.773156 5.22786 0.645325C5.51308 0.500001 5.88673 0.500001 6.63346 0.500001H10.3668C11.1135 0.500001 11.4867 0.500001 11.7719 0.645325C12.0228 0.773156 12.227 0.976982 12.3548 1.22787C12.5001 1.51308 12.5001 1.88645 12.5001 2.63319V6.36654C12.5001 7.11327 12.5001 7.48664 12.3548 7.77186C12.227 8.02274 12.0226 8.22699 11.7717 8.35482C11.4868 8.5 11.114 8.5 10.3687 8.5H8.5M4.5 4.5H2.63346C1.88673 4.5 1.51308 4.5 1.22787 4.64533C0.976982 4.77316 0.773156 4.97698 0.645325 5.22787C0.500001 5.51308 0.500001 5.88673 0.500001 6.63346V10.3668C0.500001 11.1135 0.500001 11.4867 0.645325 11.7719C0.773156 12.0228 0.976982 12.227 1.22787 12.3548C1.5128 12.5 1.886 12.5 2.63127 12.5H6.36903C7.11431 12.5 7.48698 12.5 7.77192 12.3548C8.0228 12.227 8.22699 12.0226 8.35482 11.7717C8.5 11.4868 8.5 11.114 8.5 10.3687V8.5M4.5 4.5H6.3668C7.11354 4.5 7.48671 4.5 7.77192 4.64533C8.0228 4.77316 8.22699 4.97698 8.35482 5.22787C8.5 5.5128 8.5 5.886 8.5 6.6313L8.5 8.5" stroke="var(--stroke-0, white)" stroke-linecap="round" stroke-linejoin="round"/>
</svg>
