<svg preserveAspectRatio="none" width="100%" height="100%" overflow="visible" style="display: block;" viewBox="0 0 22 18.3333" fill="none" xmlns="http://www.w3.org/2000/svg">
<path id="Path-3" fill-rule="evenodd" clip-rule="evenodd" d="M1.50631 7.90702C7.41068 5.3279 11.3413 3.61415 13.315 2.78273C18.9326 0.424196 20.1135 0.0169678 20.8726 0C21.0413 0 21.4125 0.0339359 21.6655 0.23755C21.8679 0.407229 21.9185 0.627811 21.9523 0.79749C21.986 0.967168 22.0198 1.32349 21.986 1.59498C21.6824 4.81887 20.3665 12.641 19.6918 16.2382C19.405 17.7653 18.8483 18.2744 18.3084 18.3253C17.1276 18.4271 16.2335 17.5448 15.1032 16.7982C13.315 15.6274 12.3197 14.8978 10.5822 13.744C8.57468 12.4205 9.87364 11.6908 11.0208 10.5031C11.3244 10.1977 16.5034 5.44668 16.6046 5.02248C16.6215 4.97158 16.6215 4.76796 16.5034 4.66616C16.3853 4.56435 16.2166 4.59829 16.0817 4.63222C15.8961 4.66616 13.062 6.56656 7.54563 10.3165C6.73589 10.8764 6.0105 11.1479 5.35258 11.1309C4.62719 11.1139 3.24388 10.7237 2.19797 10.3843C0.932744 9.97709 -0.0794328 9.75651 0.00491532 9.04386C0.0555242 8.67057 0.561612 8.29728 1.50631 7.90702Z" fill="var(--fill-0, black)"/>
</svg>
