<svg preserveAspectRatio="none" width="100%" height="100%" overflow="visible" style="display: block;" viewBox="0 0 25.034 14.1497" fill="none" xmlns="http://www.w3.org/2000/svg">
<path id="Vector" fill-rule="evenodd" clip-rule="evenodd" d="M24.4576 0.949517C24.6337 0.390977 24.4576 0 23.6358 0H20.8966C20.1922 0 19.8792 0.353741 19.7031 0.744719C19.7031 0.744719 18.3139 3.98425 16.3377 6.06946C15.692 6.68385 15.4181 6.87003 15.0659 6.87003C14.8898 6.87003 14.6354 6.68385 14.6354 6.12531V0.949517C14.6354 0.27927 14.4398 0 13.8528 0H9.54826C9.1178 0 8.84388 0.316506 8.84388 0.595775C8.84388 1.22879 9.82218 1.37773 9.93958 3.12782V6.96312C9.93958 7.80093 9.78305 7.94987 9.43086 7.94987C8.51125 7.94987 6.24159 4.71035 4.91109 0.986753C4.63717 0.297888 4.38281 0 3.67843 0H0.939173C0.156529 0 0 0.353741 0 0.744719C0 1.43358 0.919607 4.85929 4.32411 9.38346C6.59378 12.474 9.78305 14.1497 12.6788 14.1497C14.4202 14.1497 14.6354 13.7773 14.6354 13.1443V10.7984C14.6354 10.0537 14.792 9.90476 15.3594 9.90476C15.7703 9.90476 16.4551 10.0909 18.0791 11.5804C19.9379 13.3491 20.2509 14.1497 21.2879 14.1497H24.0272C24.8098 14.1497 25.2011 13.7773 24.9663 13.0512C24.712 12.3251 23.8315 11.2639 22.6575 9.99785C22.0119 9.27175 21.0531 8.50841 20.7792 8.11744C20.3683 7.61475 20.4857 7.39133 20.7792 6.96312C20.7792 6.9445 24.125 2.47619 24.4576 0.949517Z" fill="var(--fill-0, black)"/>
</svg>
