<svg preserveAspectRatio="none" width="100%" height="100%" overflow="visible" style="display: block;" viewBox="0 0 24 16.8" fill="none" xmlns="http://www.w3.org/2000/svg">
<path id="Vector" d="M11.7721 0C9.0907 0.015641 5.91448 0.0500503 3.45769 0.351922C0.906654 0.663178 0.254756 2.21477 0.122805 4.76581C0.050547 6.15473 -0.0044308 7.22927 0.000281702 8.39922C-0.0044308 9.57073 0.050547 10.6453 0.122805 12.0342C0.254756 14.5852 0.906654 16.1353 3.45769 16.4449C5.91291 16.7468 9.0907 16.7859 11.7721 16.7969V16.8C11.8475 16.7984 11.9214 16.7984 11.9983 16.7984C12.0753 16.7984 12.1523 16.7984 12.2277 16.8V16.7969C14.9091 16.7859 18.0837 16.7484 20.5421 16.4449C23.0916 16.1353 23.745 14.5852 23.877 12.0342C23.9508 10.6437 24.0058 9.57073 23.9995 8.39922C24.0058 7.22927 23.9508 6.15317 23.877 4.76581C23.745 2.21477 23.0916 0.663178 20.5421 0.351922C18.0837 0.0516144 14.9091 0.015641 12.2277 0C12.1523 0 12.0753 0 11.9983 0C11.9214 0 11.8475 0 11.7721 0ZM9.58866 4.84715L15.7919 8.41955L9.58866 11.9904V4.84715Z" fill="var(--fill-0, black)"/>
</svg>
