<svg preserveAspectRatio="none" width="100%" height="100%" overflow="visible" style="display: block;" viewBox="0 0 942.138 140" fill="none" xmlns="http://www.w3.org/2000/svg">
<g id="logo">
<g id="logo_2">
<path d="M154.304 14.0781C149.392 6.8442 143.902 4.30304 135.658 4.30304H99.3339C91.0901 4.30304 85.5997 6.8442 80.6874 14.0781L0 133.055H31.4115L45.1456 113.285C48.4772 108.389 52.2166 105.848 58.6927 105.848H176.282C182.758 105.848 186.497 108.389 189.829 113.285L203.563 133.055H234.974L154.304 14.0781ZM95.6113 37.3551C98.5519 32.8488 102.088 29.1387 109.346 29.1387H125.646C132.904 29.1387 136.253 32.8488 139.38 37.3551L168.276 79.8096H66.6985L95.5943 37.3551H95.6113Z" fill="var(--fill-0, white)"/>
<path d="M480.895 74.7442V62.6143C480.895 45.7918 479.332 39.134 496.397 34.0516C512.494 29.3589 544.687 27.7834 555.498 27.7834C566.308 27.7834 598.485 29.342 614.581 34.0516C631.664 39.134 630.083 45.7918 630.083 62.6143V74.7442C630.083 91.5667 631.647 98.2245 614.581 103.307C598.485 108 566.291 109.575 555.498 109.575C544.704 109.575 512.494 108.017 496.397 103.307C479.315 98.2245 480.895 91.5667 480.895 74.7442ZM454.005 45.1989V92.1596C454.005 110.354 456.164 118.96 475.201 126.398C491.893 132.852 524.086 137.358 555.498 137.358C586.909 137.358 619.103 132.852 635.794 126.398C654.832 118.96 656.99 110.354 656.99 92.1596V45.1989C656.99 27.0041 654.832 18.398 635.794 10.9609C619.103 4.50634 586.909 0 555.498 0C524.086 0 491.893 4.50634 475.201 10.9609C456.164 18.398 454.005 27.0041 454.005 45.1989Z" fill="var(--fill-0, white)"/>
<path d="M307.265 133.055H333.577V39.1339C333.577 31.6968 336.722 29.1556 343.793 29.1556H426.843L419.194 13.3157C415.863 6.2682 411.137 4.31998 403.284 4.31998H237.592C229.739 4.31998 225.031 6.2682 221.682 13.3157L214.033 29.1556H297.084C304.155 29.1556 307.299 31.6968 307.299 39.1339V133.055H307.265Z" fill="var(--fill-0, white)"/>
<path d="M821.663 90.601C830.892 90.601 835.006 87.6702 838.541 82.9606L888.004 16.2296C894.48 7.4202 898.798 4.30304 909.404 4.30304H928.05V133.055H901.738V39.5236L851.289 108.982C845.986 116.216 839.901 119.164 831.453 119.164H798.478C790.03 119.164 783.758 116.233 778.455 108.982L727.802 39.71V133.039H701.49V4.30304H720.136C730.743 4.30304 735.247 7.82679 741.536 16.2296L791.016 82.9606C794.551 87.6533 798.665 90.601 807.895 90.601H821.663Z" fill="var(--fill-0, white)"/>
</g>
</g>
</svg>
